<svg xmlns="http://www.w3.org/2000/svg" width="900" height="200" viewBox="0 0 369.95475994856054 68.48894180982643" class="css-1j8o68f"><defs id="SvgjsDefs2484"></defs><g id="SvgjsG2485" featurekey="symbolFeature-0" transform="matrix(0.728378368941345,0,0,0.728378368941345,-1.3963015472083673,-2.6232077203716475)" fill="#aacfd0"><g xmlns="http://www.w3.org/2000/svg"><circle cx="49.999" cy="68.487" r="1.931"></circle></g><path xmlns="http://www.w3.org/2000/svg" d="M94.074,10.466H5.926c-2.023,0-4.009,1.586-4.009,3.203v56.749c0,3.307,2.078,4.813,4.009,4.813h36.793  c-0.115,2.302-0.531,5.082-1.444,5.995c-2.037,2.035-3.898,2.943-6.037,2.943c-3.266,0-4.138,1.685-4.138,2.682v2.682H48.73h2.536  h17.631v-2.682c0-0.997-0.873-2.682-4.14-2.682c-2.137,0-3.999-0.908-6.035-2.943c-0.914-0.913-1.329-3.693-1.446-5.995h36.798  c1.932,0,4.009-1.507,4.009-4.813V13.669C98.083,12.052,96.098,10.466,94.074,10.466z M57.677,82.273  c2.303,2.304,4.556,3.374,7.081,3.374c1.952,0,2.659,0.719,2.659,1.204v1.201h-16.15H48.73H32.578v-1.201  c0-0.485,0.709-1.204,2.66-1.204c2.527,0,4.779-1.07,7.083-3.374c1.405-1.407,1.787-4.886,1.886-7.042h11.585  C55.89,77.388,56.27,80.866,57.677,82.273z M94.607,70.418c0,0.055-0.007,1.338-0.533,1.338H5.926c-0.526,0-0.533-1.283-0.533-1.338  V14.136c0.136-0.095,0.334-0.194,0.533-0.194h88.148c0.198,0,0.397,0.1,0.533,0.194V70.418z"></path><g xmlns="http://www.w3.org/2000/svg"><g><path d="M60.231,86.359H39.769c-0.271,0-0.492-0.22-0.492-0.492c0-0.271,0.221-0.492,0.492-0.492h20.462    c0.271,0,0.492,0.221,0.492,0.492C60.724,86.14,60.503,86.359,60.231,86.359z"></path></g></g><g xmlns="http://www.w3.org/2000/svg"><path d="M93.078,65.688H6.917V15.41h86.161V65.688z M8.22,64.385h83.554V16.714H8.22V64.385z"></path></g><g xmlns="http://www.w3.org/2000/svg"><path d="M12.565,37.878c-0.112,0-0.223-0.042-0.307-0.127c-0.17-0.17-0.17-0.445,0-0.614l16.219-16.219   c0.17-0.17,0.445-0.17,0.614,0c0.17,0.17,0.17,0.445,0,0.614L12.873,37.75C12.788,37.835,12.677,37.878,12.565,37.878z"></path></g><g xmlns="http://www.w3.org/2000/svg"><path d="M11.513,45.915c-0.112,0-0.223-0.042-0.308-0.127c-0.169-0.169-0.169-0.444,0-0.614l25.308-25.31   c0.169-0.169,0.445-0.169,0.614,0c0.17,0.17,0.17,0.445,0,0.614L11.82,45.788C11.735,45.873,11.625,45.915,11.513,45.915z"></path></g><g xmlns="http://www.w3.org/2000/svg"><path d="M13.607,29.768c-0.112,0-0.222-0.042-0.307-0.127c-0.17-0.17-0.17-0.445,0-0.614l7.067-7.067   c0.169-0.169,0.445-0.169,0.614,0c0.17,0.17,0.17,0.445,0,0.615l-7.067,7.066C13.83,29.725,13.719,29.768,13.607,29.768z"></path></g></g><g id="SvgjsG2486" featurekey="nameFeature-0" transform="matrix(0.952034865002483,0,0,0.952034865002483,87.25790228281535,-11.424036140994986)" fill="#34495e"><path d="M23.78 26.082 c1.6137 1.5866 2.4196 3.5098 2.4205 5.7684 c0 2.2334 -0.80684 4.1556 -2.4205 5.77 c-1.5883 1.5875 -3.5106 2.3803 -5.77 2.3803 l0 -4.6802 c0.4834 0 0.94144 -0.087424 1.3715 -0.26312 c0.43008 -0.17394 0.80684 -0.41608 1.1294 -0.72556 c0.32344 -0.30945 0.57084 -0.68008 0.74652 -1.1102 c0.17394 -0.43008 0.26223 -0.88728 0.26223 -1.3715 c0 -0.9406 -0.34965 -1.7606 -1.049 -2.4608 c-0.67224 -0.69928 -1.4922 -1.049 -2.4608 -1.049 l-6.9792 0 c-2.2596 0 -4.1836 -0.79372 -5.7692 -2.3803 c-1.5883 -1.5866 -2.3812 -3.5228 -2.3812 -5.8096 c0 -2.2326 0.79372 -4.1416 2.3812 -5.7292 c1.5604 -1.6137 3.4835 -2.4214 5.7692 -2.4214 l0 4.681 c-0.4834 0 -0.94144 0.086524 -1.3715 0.26223 s-0.80684 0.42396 -1.1294 0.74652 c-0.32254 0.32254 -0.57168 0.70016 -0.74652 1.1302 s-0.26226 0.87416 -0.26226 1.3304 c0 0.96856 0.33566 1.8025 1.0088 2.5018 c0.67132 0.69928 1.5053 1.0481 2.5009 1.0481 l6.9792 0 c2.2596 0 4.1828 0.7946 5.7704 2.3812 z M23.162 37.0022 c1.4563 -1.4572 2.1634 -3.1426 2.1642 -5.1524 c0 -2.0341 -0.70628 -3.7169 -2.1591 -5.146 c-1.4354 -1.4354 -3.1207 -2.1303 -5.1564 -2.1303 l-6.9792 0 c-1.2378 0 -2.2911 -0.44232 -3.1312 -1.3164 c-0.83132 -0.86368 -1.2526 -1.9091 -1.2526 -3.1076 c0 -0.56908 0.10926 -1.1276 0.32606 -1.66 c0.21856 -0.53672 0.535 -1.0149 0.93888 -1.4188 c0.40296 -0.40388 0.88024 -0.7194 1.4178 -0.93796 c0.2666 -0.1084 0.5428 -0.19058 0.82692 -0.24476 l0 -2.9695 c-1.667 0.1757 -3.0691 0.87068 -4.2668 2.1093 c-1.4406 1.4406 -2.1356 3.112 -2.1356 5.1216 c0 2.0647 0.6958 3.7623 2.125 5.1916 s3.1137 2.1242 5.1512 2.1242 l6.9792 0 c1.2098 0 2.25 0.4432 3.091 1.3174 c0.85492 0.8558 1.2938 1.8916 1.2938 3.0674 c0 0.5944 -0.11016 1.1661 -0.32606 1.7002 c-0.22465 0.54808 -0.54456 1.0227 -0.95368 1.4135 c-0.40212 0.38461 -0.87504 0.68884 -1.4056 0.90388 c-0.26574 0.1084 -0.54196 0.19058 -0.82604 0.24476 l0 2.9686 c1.6522 -0.17394 3.0578 -0.85924 4.278 -2.0787 z M44.35 26 l14 -14 l0 28 l-4.64 0 l0 -16.743 l-9.3604 9.3604 l-14.04 -14.102 l0 -6.515 z M57.476 39.12548 l-0.000039062 -25.014 l-12.508 12.507 l-0.61716 0.61716 l-0.618 -0.61628 l-12.548 -12.512 l0 4.0473 l13.167 13.225 l10.233 -10.233 l0 17.979 l2.8917 0 z M74.42 12 l9.3404 18.681 l-5.2248 -0.00085936 l-4.1156 -8.23 l-4.1024 8.23 l-4.6932 9.32 l-5.2046 0 z M75.202 22.058 l3.8742 7.7468 l3.2702 0.00085936 l-7.926 -15.852 l-12.586 25.172 l3.2518 0 l4.4512 -8.8392 l4.0996 -8.2276 l0.78148 -1.5674 z M86.1 35.3612 l2.3191 4.638 l-5.2046 0 l-2.3191 -4.638 l5.2046 0 z M82.31 36.2355 l1.445 2.8899 l3.2501 0 l-1.445 -2.8899 l-3.2501 0 z M100.444 26.605 c-1.076 1.5604 -2.4475 2.6765 -4.1136 3.3488 l5.7692 10.046 l-5.3664 0 l-8.1312 -14.018 l4.1776 0.018359 c1.264 0 2.3532 -0.4572 3.2684 -1.3715 c0.91348 -0.91432 1.3715 -2.0175 1.3715 -3.3086 c0 -1.264 -0.4572 -2.3541 -1.3715 -3.2684 c-0.91524 -0.91432 -2.0044 -1.3715 -3.2684 -1.3715 l-9.5736 0 l-2.7151 -4.68 l12.288 0 c2.5551 0 4.7468 0.91524 6.5752 2.744 c1.8296 1.8296 2.7439 4.0212 2.7439 6.576 c0 1.9362 -0.5516 3.6985 -1.6539 5.2852 z M100.588 39.1262 l-5.0176 -8.738 l-0.5 -0.87068 l0.93096 -0.375 c1.4974 -0.60316 2.7501 -1.6242 3.7221 -3.0342 c1.0105 -1.4528 1.5 -3.0184 1.5 -4.7884 c0 -2.3348 -0.81384 -4.284 -2.4878 -5.958 s-3.6233 -2.4878 -5.958 -2.4878 l-10.77 0 l1.702 2.9319 l9.0701 0 c1.4974 0 2.8052 0.54808 3.8856 1.6276 c1.0804 1.0813 1.6276 2.3891 1.6276 3.8865 c0 1.5254 -0.54724 2.8462 -1.6276 3.9266 c-1.0804 1.0796 -2.3882 1.6276 -3.8864 1.6276 l-2.6565 -0.011367 l7.1136 12.263 l3.3523 0 z M106.20089999999999 12 l14 0 l0 4.681 l-9.3201 0 l0 23.319 l-4.6802 0 l0 -28 z M119.326 15.806999999999999 l0 -2.9328 l-12.252 0 l0 26.252 l2.9319 0 l0 -23.319 l9.3201 0 z M145.17 26.082 c1.6137 1.5866 2.4196 3.5098 2.4205 5.7684 c0 2.2334 -0.80684 4.1556 -2.4205 5.77 c-1.5883 1.5875 -3.5106 2.3803 -5.77 2.3803 l0 -4.6802 c0.4834 0 0.94144 -0.087424 1.3715 -0.26312 c0.43008 -0.17394 0.80684 -0.41608 1.1294 -0.72556 c0.32344 -0.30945 0.57084 -0.68008 0.74652 -1.1102 c0.17394 -0.43008 0.26223 -0.88728 0.26223 -1.3715 c0 -0.9406 -0.34965 -1.7606 -1.049 -2.4608 c-0.67224 -0.69928 -1.4922 -1.049 -2.4608 -1.049 l-6.9792 0 c-2.2596 0 -4.1836 -0.79372 -5.7692 -2.3803 c-1.5883 -1.5866 -2.3812 -3.5228 -2.3812 -5.8096 c0 -2.2326 0.79372 -4.1416 2.3812 -5.7292 c1.5604 -1.6137 3.4835 -2.4214 5.7692 -2.4214 l0 4.681 c-0.4834 0 -0.94144 0.086524 -1.3715 0.26223 s-0.80684 0.42396 -1.1294 0.74652 c-0.32254 0.32254 -0.57168 0.70016 -0.74652 1.1302 s-0.26226 0.87416 -0.26226 1.3304 c0 0.96856 0.33566 1.8025 1.0088 2.5018 c0.67132 0.69928 1.5053 1.0481 2.5009 1.0481 l6.9792 0 c2.2596 0 4.1828 0.7946 5.7704 2.3812 z M144.552 37.0022 c1.4563 -1.4572 2.1634 -3.1426 2.1642 -5.1524 c0 -2.0341 -0.70628 -3.7169 -2.1591 -5.146 c-1.4354 -1.4354 -3.1207 -2.1303 -5.1564 -2.1303 l-6.9792 0 c-1.2378 0 -2.2911 -0.44232 -3.1312 -1.3164 c-0.83132 -0.86368 -1.2526 -1.9091 -1.2526 -3.1076 c0 -0.56908 0.10926 -1.1276 0.32606 -1.66 c0.21856 -0.53672 0.535 -1.0149 0.93888 -1.4188 c0.40296 -0.40388 0.88024 -0.7194 1.4178 -0.93796 c0.2666 -0.1084 0.5428 -0.19058 0.82692 -0.24476 l0 -2.9695 c-1.667 0.1757 -3.0691 0.87068 -4.2668 2.1093 c-1.4406 1.4406 -2.1356 3.112 -2.1356 5.1216 c0 2.0647 0.6958 3.7623 2.125 5.1916 s3.1137 2.1242 5.1512 2.1242 l6.9792 0 c1.2098 0 2.25 0.4432 3.091 1.3174 c0.85492 0.8558 1.2938 1.8916 1.2938 3.0674 c0 0.5944 -0.11016 1.1661 -0.32606 1.7002 c-0.22465 0.54808 -0.54456 1.0227 -0.95368 1.4135 c-0.40212 0.38461 -0.87504 0.68884 -1.4056 0.90388 c-0.26574 0.1084 -0.54196 0.19058 -0.82604 0.24476 l0 2.9686 c1.6522 -0.17394 3.0578 -0.85924 4.278 -2.0787 z M159.124 19.403 c-0.83396 0.84792 -1.5 1.8366 -1.9974 2.966 c-0.49824 1.1303 -0.74648 2.3392 -0.74648 3.6312 c0 1.2902 0.24824 2.5009 0.74648 3.6303 c0.4974 1.1303 1.1696 2.119 2.0175 2.966 c0.84704 0.84792 1.8357 1.5123 2.966 1.9965 c1.1294 0.48516 2.3392 0.7264 3.6303 0.7264 l5.4268 3.5901 c-1.6818 0.7264 -3.4896 1.09 -5.4268 1.09 c-1.9354 0 -3.7518 -0.37062 -5.446 -1.1102 c-1.695 -0.7404 -3.181 -1.7491 -4.4592 -3.0262 c-1.2771 -1.278 -2.2859 -2.7702 -3.0254 -4.4784 c-0.7404 -1.7081 -1.1102 -3.5036 -1.1102 -5.3856 c0 -1.9362 0.36976 -3.7527 1.1102 -5.4468 c0.73952 -1.6941 1.7483 -3.174 3.0254 -4.4372 c1.278 -1.2649 2.7649 -2.2658 4.4592 -3.0053 c1.6941 -0.7404 3.5097 -1.1102 5.446 -1.1102 c1.9371 0 3.7448 0.36277 5.4268 1.0901 c1.681 0.7264 3.167 1.7343 4.458 3.0263 l-3.3078 3.2676 c-1.8558 -1.8025 -4.048 -2.7038 -6.576 -2.7038 c-1.2911 0 -2.5079 0.24215 -3.6512 0.7264 c-1.1442 0.48424 -2.132 1.1495 -2.966 1.9965 z M156.3268 29.983 c-0.5446 -1.2343 -0.821 -2.5744 -0.821 -3.9835 c0 -1.4082 0.27711 -2.7492 0.82172 -3.9843 c0.53672 -1.2203 1.2675 -2.3051 2.1731 -3.2256 c0.9126 -0.9266 2.0053 -1.6626 3.2484 -2.1889 c1.2465 -0.52796 2.5892 -0.79548 3.9913 -0.79548 c2.4677 0 4.6672 0.799 6.5492 2.3759 l2.0752 -2.0499 c-1.0542 -0.92572 -2.243 -1.6775 -3.5446 -2.2395 c-1.563 -0.67484 -3.2719 -1.0175 -5.0796 -1.0175 c-1.8068 0 -3.521 0.34879 -5.0972 1.0358 c-1.5883 0.6932 -2.9992 1.6442 -4.1932 2.8261 c-1.1932 1.1801 -2.1478 2.5813 -2.8392 4.1652 c-0.68796 1.5752 -1.0368 3.2903 -1.0368 5.098 c0 1.7544 0.34879 3.4494 1.0376 5.0384 c0.69144 1.5971 1.6478 3.0132 2.8418 4.208 c1.195 1.1932 2.605 2.1504 4.1908 2.8427 c1.5761 0.68796 3.2912 1.0368 5.0964 1.0368 c1.208 0 2.3724 -0.15297 3.4791 -0.45628 l-3.7466 -2.4791 c-1.3077 -0.031484 -2.5534 -0.29808 -3.7073 -0.79372 c-1.2282 -0.52536 -2.3182 -1.2596 -3.2395 -2.1819 c-0.92132 -0.9196 -1.6609 -2.007 -2.1993 -3.2317 z M187.73 12 l9.3404 18.681 l-5.2248 -0.00085936 l-4.1156 -8.23 l-4.1024 8.23 l-4.6932 9.32 l-5.2046 0 z M188.512 22.058 l3.8742 7.7468 l3.2702 0.00085936 l-7.926 -15.852 l-12.586 25.172 l3.2518 0 l4.4512 -8.8392 l4.0996 -8.2276 l0.78148 -1.5674 z M199.41 35.3612 l2.3191 4.638 l-5.2046 0 l-2.3191 -4.638 l5.2046 0 z M195.62 36.2355 l1.445 2.8899 l3.2501 0 l-1.445 -2.8899 l-3.2501 0 z M216.41299999999998 12 l4.6732 0 l0 28.001 l-23.286 -20.923 l0 -7.0779 l18.613 16.76 l0 -16.76 z M220.212 38.0397 l0 -25.166 l-2.9249 0 l0 17.849 l-1.459 -1.3138 l-17.154 -15.446 l0 4.7247 z M243.803 12 l4.6732 0 l0 28.001 l-23.286 -20.923 l0 -7.0779 l18.613 16.76 l0 -16.76 z M247.602 38.0397 l0 -25.166 l-2.9249 0 l0 17.849 l-1.459 -1.3138 l-17.154 -15.446 l0 4.7247 z M252.57999999999998 39.61492 l4.6392 -4.2956 l14 0 l0 4.6802 l-18.639 0 l0 -0.38461 z M270.346 36.1944 l-12.783 0 l-3.167 2.9319 l15.95 0 l0 -2.9319 z M252.57999999999998 12 l18.64 0 l0 4.6802 l-14 0 z M270.346 15.806000000000001 l0 -2.9319 l-15.668 0 l2.9065 2.9319 l12.762 0 z M252.57999999999998 28.34 l0 -4.64 l18.639 0 l0 4.64 l-18.639 0 z M253.45409999999998 24.573999999999998 l0 2.8917 l16.891 0 l0 -2.8917 l-16.891 0 z M295.284 26.605 c-1.076 1.5604 -2.4475 2.6765 -4.1136 3.3488 l5.7692 10.046 l-5.3664 0 l-8.1312 -14.018 l4.1776 0.018359 c1.264 0 2.3532 -0.4572 3.2684 -1.3715 c0.91348 -0.91432 1.3715 -2.0175 1.3715 -3.3086 c0 -1.264 -0.4572 -2.3541 -1.3715 -3.2684 c-0.91524 -0.91432 -2.0044 -1.3715 -3.2684 -1.3715 l-9.5736 0 l-2.7151 -4.68 l12.288 0 c2.5551 0 4.7468 0.91524 6.5752 2.744 c1.8296 1.8296 2.7439 4.0212 2.7439 6.576 c0 1.9362 -0.5516 3.6985 -1.6539 5.2852 z M295.428 39.1262 l-5.0176 -8.738 l-0.5 -0.87068 l0.93096 -0.375 c1.4974 -0.60316 2.7501 -1.6242 3.7221 -3.0342 c1.0105 -1.4528 1.5 -3.0184 1.5 -4.7884 c0 -2.3348 -0.81384 -4.284 -2.4878 -5.958 s-3.6233 -2.4878 -5.958 -2.4878 l-10.77 0 l1.702 2.9319 l9.0701 0 c1.4974 0 2.8052 0.54808 3.8856 1.6276 c1.0804 1.0813 1.6276 2.3891 1.6276 3.8865 c0 1.5254 -0.54724 2.8462 -1.6276 3.9266 c-1.0804 1.0796 -2.3882 1.6276 -3.8864 1.6276 l-2.6565 -0.011367 l7.1136 12.263 l3.3523 0 z"></path></g><g id="SvgjsG2487" featurekey="sloganFeature-0" transform="matrix(1.4850685150843363,0,0,1.4850685150843363,88.58812272459757,38.34205208663175)" fill="#34495e"><path d="M18.67 6 c0.22 0 0.29 0.14 0.24 0.34 l-3.57 13.42 c-0.04 0.16 -0.2 0.24 -0.36 0.24 l-1.53 0 c-0.16 0 -0.31 -0.08 -0.36 -0.24 l-3.17 -10.57 l-3.17 10.57 c-0.05 0.16 -0.19 0.24 -0.35 0.24 l-1.54 0 c-0.16 0 -0.32 -0.08 -0.36 -0.24 l-3.53 -13.42 c-0.06 -0.21 0.02 -0.34 0.24 -0.34 l1.29 0 c0.16 0 0.3 0.06 0.34 0.24 l2.83 11.41 l3.32 -11.41 c0.03 -0.11 0.09 -0.17 0.16 -0.21 c0.04 -0.02 0.1 -0.03 0.16 -0.03 l1.23 0 c0.06 0 0.12 0.01 0.16 0.03 c0.07 0.04 0.13 0.1 0.16 0.21 l3.32 11.41 l2.86 -11.41 c0.05 -0.18 0.18 -0.24 0.34 -0.24 l1.29 0 z M29.2305 20.26 c-3.96 0 -7.17 -3.2 -7.17 -7.2 c0 -4.02 3.21 -7.22 7.17 -7.22 c3.95 0 7.16 3.2 7.16 7.22 c0 4 -3.21 7.2 -7.16 7.2 z M29.2305 18.49 c2.97 0 5.32 -2.4 5.32 -5.43 c0 -3.05 -2.35 -5.45 -5.32 -5.45 c-2.98 0 -5.33 2.4 -5.33 5.45 c0 3.03 2.35 5.43 5.33 5.43 z M47.611 14.57 l2.68 5.08 c0.11 0.21 0.01 0.35 -0.22 0.35 l-1.32 0 c-0.16 0 -0.27 -0.07 -0.35 -0.22 l-2.58 -4.99 l-0.29 0 l-3.39 0 l0 4.91 c0 0.18 -0.12 0.3 -0.3 0.3 l-1.27 0 c-0.18 0 -0.3 -0.12 -0.3 -0.3 l0 -13.4 c0 -0.18 0.12 -0.3 0.3 -0.3 l4.96 0 c3.69 0 5.04 1.56 5.04 4.39 c0 2.22 -0.83 3.66 -2.96 4.18 z M42.141 7.699999999999999 l0 5.39 l3.52 0 c1.86 0 3.1 -0.5 3.1 -2.7 c0 -2.19 -1.24 -2.69 -3.1 -2.69 l-3.52 0 z M64.0215 19.64 c0.14 0.2 0.06 0.36 -0.18 0.36 l-1.53 0 c-0.16 0 -0.26 -0.04 -0.36 -0.18 l-4.63 -6.3 l-1.55 1.74 l0 4.44 c0 0.18 -0.12 0.3 -0.3 0.3 l-1.27 0 c-0.18 0 -0.3 -0.12 -0.3 -0.3 l0 -13.4 c0 -0.18 0.12 -0.3 0.3 -0.3 l1.27 0 c0.18 0 0.3 0.12 0.3 0.3 l0 6.47 l5.82 -6.61 c0.1 -0.12 0.22 -0.16 0.36 -0.16 l1.6 0 c0.26 0 0.34 0.18 0.16 0.36 l-5.18 5.81 z M80.45249999999999 12.01 c2.72 0.56 5.21 1.37 5.21 4.33 c0 2.4 -1.61 3.96 -5.15 3.96 c-3.03 0 -4.85 -1.12 -5.06 -3.42 c-0.02 -0.2 0.1 -0.36 0.28 -0.36 l1.22 0 c0.18 0 0.28 0.14 0.3 0.3 c0.17 1.1 1.33 1.78 3.26 1.78 c2.13 0 3.31 -0.72 3.31 -2.24 c0 -1.77 -1.23 -2.15 -3.37 -2.65 c-2.54 -0.58 -4.68 -1.45 -4.68 -4.16 c0 -2.26 1.53 -3.72 4.62 -3.72 c2.86 0 4.62 1.09 4.85 3.35 c0.02 0.2 -0.1 0.3 -0.28 0.3 l-1.13 0 c-0.18 0 -0.28 -0.08 -0.3 -0.24 c-0.15 -1.02 -1.26 -1.74 -3.13 -1.74 c-1.72 0 -2.83 0.7 -2.83 2.05 c0 1.36 0.91 2.05 2.88 2.46 z M103.25299999999999 6 c0.18 0 0.3 0.12 0.3 0.3 l0 13.4 c0 0.18 -0.12 0.3 -0.3 0.3 l-1.27 0 c-0.18 0 -0.3 -0.12 -0.3 -0.3 l0 -10.15 l-4.29 10.22 c-0.06 0.16 -0.18 0.23 -0.34 0.23 l-1.24 0 c-0.16 0 -0.28 -0.07 -0.34 -0.23 l-4.26 -10.15 l0 10.08 c0 0.18 -0.12 0.3 -0.3 0.3 l-1.27 0 c-0.18 0 -0.3 -0.12 -0.3 -0.3 l0 -13.4 c0 -0.18 0.12 -0.3 0.3 -0.3 l1.59 0 c0.16 0 0.3 0.06 0.36 0.2 l4.85 11.69 l4.83 -11.69 c0.06 -0.14 0.2 -0.2 0.36 -0.2 l1.62 0 z M119.05349999999999 19.66 c0.08 0.2 -0.02 0.34 -0.24 0.34 l-1.29 0 c-0.16 0 -0.27 -0.06 -0.34 -0.24 l-0.99 -2.69 l-6.42 0 l-0.99 2.69 c-0.07 0.18 -0.18 0.24 -0.34 0.24 l-1.29 0 c-0.22 0 -0.32 -0.14 -0.24 -0.34 l5.08 -13.42 c0.06 -0.16 0.2 -0.24 0.36 -0.24 l1.26 0 c0.16 0 0.3 0.08 0.36 0.24 z M110.38349999999998 15.42 l5.2 0 l-2.6 -7.08 z M129.754 14.57 l2.68 5.08 c0.11 0.21 0.01 0.35 -0.22 0.35 l-1.32 0 c-0.16 0 -0.27 -0.07 -0.35 -0.22 l-2.58 -4.99 l-0.29 0 l-3.39 0 l0 4.91 c0 0.18 -0.12 0.3 -0.3 0.3 l-1.27 0 c-0.18 0 -0.3 -0.12 -0.3 -0.3 l0 -13.4 c0 -0.18 0.12 -0.3 0.3 -0.3 l4.96 0 c3.69 0 5.04 1.56 5.04 4.39 c0 2.22 -0.83 3.66 -2.96 4.18 z M124.28399999999998 7.699999999999999 l0 5.39 l3.52 0 c1.86 0 3.1 -0.5 3.1 -2.7 c0 -2.19 -1.24 -2.69 -3.1 -2.69 l-3.52 0 z M146.09449999999998 6 c0.18 0 0.3 0.12 0.3 0.3 l0 1.1 c0 0.18 -0.12 0.3 -0.3 0.3 l-4.19 0 l0 12 c0 0.18 -0.12 0.3 -0.3 0.3 l-1.27 0 c-0.18 0 -0.3 -0.12 -0.3 -0.3 l0 -12 l-4.19 0 c-0.18 0 -0.3 -0.12 -0.3 -0.3 l0 -1.1 c0 -0.18 0.12 -0.3 0.3 -0.3 l10.25 0 z M158.775 18.3 c0.18 0 0.3 0.12 0.3 0.3 l0 1.1 c0 0.18 -0.12 0.3 -0.3 0.3 l-8.55 0 c-0.18 0 -0.3 -0.12 -0.3 -0.3 l0 -13.4 c0 -0.18 0.12 -0.3 0.3 -0.3 l8.53 0 c0.18 0 0.3 0.12 0.3 0.3 l0 1.1 c0 0.18 -0.12 0.3 -0.3 0.3 l-6.96 0 l0 4.15 l6.43 0 c0.18 0 0.3 0.12 0.3 0.3 l0 1.1 c0 0.18 -0.12 0.3 -0.3 0.3 l-6.43 0 l0 4.75 l6.98 0 z M170.3455 14.57 l2.68 5.08 c0.11 0.21 0.01 0.35 -0.22 0.35 l-1.32 0 c-0.16 0 -0.27 -0.07 -0.35 -0.22 l-2.58 -4.99 l-0.29 0 l-3.39 0 l0 4.91 c0 0.18 -0.12 0.3 -0.3 0.3 l-1.27 0 c-0.18 0 -0.3 -0.12 -0.3 -0.3 l0 -13.4 c0 -0.18 0.12 -0.3 0.3 -0.3 l4.96 0 c3.69 0 5.04 1.56 5.04 4.39 c0 2.22 -0.83 3.66 -2.96 4.18 z M164.8755 7.699999999999999 l0 5.39 l3.52 0 c1.86 0 3.1 -0.5 3.1 -2.7 c0 -2.19 -1.24 -2.69 -3.1 -2.69 l-3.52 0 z"></path></g></svg>