<svg xmlns="http://www.w3.org/2000/svg" viewBox="133.752 161.932 279.955 26.658" width="279.955" height="26.658"><path d="M153.65 175.339c1.536 1.51 2.303 3.341 2.304 5.492 0 2.126-.768 3.956-2.304 5.493-1.512 1.511-3.343 2.266-5.494 2.266v-4.456c.461 0 .897-.083 1.306-.25.41-.166.768-.396 1.075-.691.308-.295.544-.647.711-1.057.166-.409.25-.845.25-1.306 0-.895-.333-1.676-.999-2.342-.64-.666-1.421-.999-2.343-.999h-6.644c-2.151 0-3.983-.756-5.493-2.266-1.512-1.511-2.267-3.354-2.267-5.531 0-2.126.756-3.943 2.267-5.455 1.486-1.536 3.317-2.305 5.493-2.305v4.457c-.46 0-.896.082-1.306.249-.409.168-.768.404-1.075.711-.307.307-.544.667-.711 1.076-.166.409-.25.832-.25 1.267 0 .922.32 1.716.961 2.381.639.666 1.433.998 2.381.998h6.644c2.152 0 3.982.757 5.494 2.267v.001Zm-.589 10.396c1.387-1.387 2.06-2.992 2.061-4.905 0-1.936-.673-3.539-2.056-4.899-1.366-1.367-2.971-2.028-4.909-2.028h-6.644c-1.179 0-2.182-.421-2.981-1.253-.792-.823-1.193-1.818-1.193-2.959 0-.542.104-1.074.311-1.58.208-.511.509-.967.893-1.351.384-.385.838-.685 1.35-.893.254-.103.517-.182.787-.233v-2.827c-1.587.167-2.921.829-4.062 2.008-1.371 1.371-2.033 2.963-2.033 4.876 0 1.966.663 3.582 2.023 4.942 1.361 1.361 2.965 2.023 4.904 2.023h6.645c1.152 0 2.142.422 2.943 1.254.813.815 1.231 1.801 1.231 2.92 0 .566-.105 1.11-.31 1.619-.214.522-.519.974-.908 1.346-.383.366-.833.655-1.338.86-.253.103-.516.182-.787.233v2.826c1.573-.165 2.911-.818 4.073-1.979Zm20.172-10.474 13.329-13.329v26.657h-4.418v-15.94l-8.911 8.912-13.367-13.426v-6.202l13.367 13.328Zm12.496 12.496v-23.814l-11.908 11.907-.587.587-.589-.586-11.946-11.912v3.853l12.536 12.591 9.742-9.743v17.117h2.753-.001Zm16.132-25.825 8.892 17.785h-4.974l-3.918-7.836-3.906 7.836-4.468 8.872h-4.955l13.329-26.657Zm.744 9.576 3.689 7.375 3.113.001-7.546-15.092-11.982 23.965h3.096l4.237-8.415 3.903-7.833.744-1.492.746 1.491Zm10.375 12.665 2.208 4.416h-4.955l-2.207-4.416h4.954Zm-3.608.832 1.376 2.752h3.094l-1.376-2.752h-3.094Zm17.264-9.168c-1.024 1.485-2.33 2.548-3.916 3.188l5.493 9.564h-5.109l-7.742-13.345 3.978.017c1.203 0 2.24-.435 3.111-1.306.87-.87 1.306-1.92 1.306-3.15 0-1.203-.435-2.241-1.306-3.111-.871-.871-1.908-1.306-3.111-1.306h-9.115l-2.585-4.455h11.699c2.433 0 4.519.871 6.26 2.612 1.742 1.742 2.612 3.828 2.612 6.261 0 1.843-.525 3.521-1.574 5.031h-.001Zm.138 11.92-4.777-8.318-.476-.829.886-.357c1.425-.575 2.618-1.547 3.543-2.889.963-1.383 1.429-2.874 1.429-4.559 0-2.223-.775-4.078-2.369-5.672-1.594-1.594-3.449-2.368-5.672-2.368h-10.254l1.621 2.791h8.635c1.425 0 2.67.522 3.699 1.549 1.029 1.03 1.55 2.275 1.55 3.7 0 1.453-.521 2.71-1.55 3.739-1.029 1.028-2.274 1.549-3.7 1.549l-2.529-.011 6.772 11.675h3.192Zm5.343-25.825h13.329v4.457h-8.873v22.2h-4.456v-26.657Zm12.496 3.625v-2.792h-11.665v24.992h2.792v-22.2h8.873Zm24.604 9.782c1.536 1.51 2.304 3.341 2.305 5.492 0 2.126-.769 3.956-2.305 5.493-1.512 1.511-3.342 2.266-5.493 2.266v-4.456c.46 0 .896-.083 1.306-.25.409-.166.768-.396 1.075-.691.308-.295.543-.647.711-1.057.165-.409.249-.845.249-1.306 0-.895-.333-1.676-.998-2.342-.64-.666-1.421-.999-2.343-.999h-6.645c-2.151 0-3.983-.756-5.492-2.266-1.512-1.511-2.267-3.354-2.267-5.531 0-2.126.756-3.943 2.267-5.455 1.485-1.536 3.316-2.305 5.492-2.305v4.457c-.46 0-.896.082-1.305.249-.41.168-.769.404-1.076.711-.307.307-.544.667-.71 1.076-.167.409-.25.832-.25 1.267 0 .922.32 1.716.96 2.381.64.666 1.434.998 2.381.998h6.645c2.151 0 3.982.757 5.493 2.267v.001Zm-.588 10.396c1.386-1.387 2.059-2.992 2.06-4.905 0-1.936-.672-3.539-2.055-4.899-1.367-1.367-2.971-2.028-4.909-2.028h-6.645c-1.178 0-2.181-.421-2.981-1.253-.791-.823-1.192-1.818-1.192-2.959 0-.542.104-1.074.31-1.58.208-.511.509-.967.894-1.351.384-.385.838-.685 1.35-.893.253-.103.516-.182.787-.233v-2.827c-1.587.167-2.922.829-4.062 2.008-1.372 1.371-2.033 2.963-2.033 4.876 0 1.966.662 3.582 2.023 4.942 1.36 1.361 2.964 2.023 4.904 2.023h6.644c1.152 0 2.142.422 2.943 1.254.814.815 1.232 1.801 1.232 2.92 0 .566-.105 1.11-.311 1.619-.214.522-.518.974-.908 1.346-.382.366-.833.655-1.338.86-.253.103-.516.182-.786.233v2.826c1.573-.165 2.911-.818 4.073-1.979Zm13.873-16.755c-.794.808-1.428 1.749-1.902 2.824-.474 1.076-.71 2.227-.71 3.457 0 1.228.236 2.381.71 3.456.474 1.076 1.114 2.018 1.921 2.824.806.807 1.748 1.44 2.824 1.901 1.075.462 2.227.691 3.456.691l5.166 3.418c-1.601.692-3.322 1.038-5.166 1.038-1.843 0-3.572-.353-5.185-1.057-1.614-.705-3.028-1.665-4.245-2.881-1.216-1.217-2.176-2.637-2.88-4.264-.705-1.626-1.057-3.335-1.057-5.127 0-1.843.352-3.573 1.057-5.186.704-1.612 1.664-3.021 2.88-4.224 1.217-1.204 2.632-2.157 4.245-2.861 1.613-.705 3.341-1.057 5.185-1.057 1.844 0 3.565.345 5.166 1.038 1.601.691 3.016 1.651 4.245 2.881l-3.15 3.111c-1.766-1.716-3.853-2.574-6.26-2.574-1.229 0-2.388.23-3.476.691-1.09.461-2.03 1.095-2.824 1.901Zm-2.663 10.073c-.519-1.175-.782-2.451-.782-3.793 0-1.34.264-2.617.783-3.793.51-1.162 1.206-2.194 2.068-3.071.869-.882 1.91-1.583 3.093-2.084 1.187-.502 2.465-.757 3.8-.757 2.349 0 4.443.761 6.235 2.262l1.976-1.952c-1.004-.881-2.136-1.597-3.375-2.132-1.488-.642-3.115-.968-4.836-.968-1.72 0-3.352.332-4.853.986-1.512.66-2.855 1.565-3.992 2.69-1.136 1.124-2.045 2.458-2.703 3.966-.655 1.499-.987 3.132-.987 4.853 0 1.67.332 3.284.988 4.797.658 1.52 1.569 2.869 2.705 4.006 1.138 1.136 2.481 2.047 3.99 2.706 1.501.655 3.134.988 4.852.988 1.15 0 2.259-.146 3.312-.435l-3.566-2.36c-1.245-.03-2.431-.284-3.53-.756-1.169-.5-2.207-1.199-3.084-2.077-.877-.875-1.581-1.911-2.094-3.077v.001Zm29.897-17.121 8.892 17.785h-4.974l-3.918-7.836-3.906 7.836-4.468 8.872h-4.955l13.329-26.657Zm.744 9.576 3.689 7.375 3.113.001-7.546-15.092-11.982 23.965h3.096l4.237-8.415 3.903-7.833.744-1.492.746 1.491Zm10.376 12.665 2.207 4.416h-4.955l-2.207-4.416h4.955Zm-3.609.832 1.376 2.752h3.094l-1.375-2.752h-3.095Zm19.796-23.073h4.449v26.658l-22.169-19.919v-6.739l17.72 15.957v-15.957Zm3.617 24.791v-23.959h-2.785v16.993l-1.389-1.251-16.331-14.705v4.498l20.505 18.424Zm22.459-24.791h4.449v26.658l-22.169-19.919v-6.739l17.72 15.957v-15.957Zm3.617 24.791v-23.959h-2.785v16.993l-1.389-1.251-16.331-14.705v4.498l20.505 18.424Zm4.739 1.5 4.417-4.09h13.328v4.456h-17.745v-.366Zm16.914-3.257h-12.17l-3.015 2.792h15.185v-2.792Zm-16.914-23.034h17.746v4.456h-13.328l-4.418-4.456Zm16.914 3.624v-2.791h-14.916l2.767 2.791h12.15-.001Zm-16.914 11.933v-4.418h17.745v4.418h-17.745Zm.832-3.586v2.753h16.081v-2.753h-16.081Zm39.824 1.934c-1.024 1.485-2.33 2.548-3.916 3.188l5.492 9.564h-5.109l-7.741-13.345 3.977.017c1.204 0 2.24-.435 3.112-1.306.869-.87 1.306-1.92 1.306-3.15 0-1.203-.436-2.241-1.306-3.111-.872-.871-1.908-1.306-3.112-1.306h-9.114l-2.585-4.455h11.698c2.433 0 4.52.871 6.26 2.612 1.742 1.742 2.613 3.828 2.613 6.261 0 1.843-.526 3.521-1.575 5.031Zm.137 11.92-4.777-8.318-.476-.829.886-.357c1.426-.575 2.619-1.547 3.544-2.889.962-1.383 1.428-2.874 1.428-4.559 0-2.223-.775-4.078-2.368-5.672-1.594-1.594-3.45-2.368-5.673-2.368h-10.253l1.62 2.791h8.635c1.426 0 2.671.522 3.7 1.549 1.028 1.03 1.549 2.275 1.549 3.7 0 1.453-.521 2.71-1.549 3.739-1.029 1.028-2.274 1.549-3.7 1.549l-2.53-.011 6.773 11.675h3.191Z" fill="#34495e"/></svg>